<?xml version="1.0" encoding="utf-8"?>
<!-- Generator: Adobe Illustrator 15.1.0, SVG Export Plug-In . SVG Version: 6.00 Build 0)  -->
<!DOCTYPE svg PUBLIC "-//W3C//DTD SVG 1.1//EN" "http://www.w3.org/Graphics/SVG/1.1/DTD/svg11.dtd">
<svg version="1.1" id="Layer_1" xmlns="http://www.w3.org/2000/svg" xmlns:xlink="http://www.w3.org/1999/xlink" x="0px" y="0px"
	 width="1920px" height="1080px" viewBox="0 0 1920 1080" enable-background="new 0 0 1920 1080" xml:space="preserve">
<rect x="820" fill="#F7DF1E" width="1080" height="1080"/>
<path d="M1406.669,599.015c17.357,0.578,39.729,18.899,52.844,34.714c13.307,15.814,21.021,45.707,26.421,64.607
	c5.4,18.899,19.286,22.564,28.929,23.722c9.643,1.156,19.864-34.136,21.601-54.771c1.735-20.636,9.643-71.743,9.063-91.222
	c-0.578-19.479,4.243-57.857,3.086-75.407c-1.157-17.743,7.907-72.515,8.485-87.75c0.579-15.235,13.308-25.65,24.107-24.879
	c10.8,0.579,16.779,10.993,19.286,23.722c2.313,12.729,1.735,54.771,5.399,67.5s0.579,34.136,1.157,43.2
	c0.579,9.064,0,60.942,4.243,63.836c4.242,3.085,8.485-37.801,10.8-57.279s3.664-37.221,5.399-66.921
	c1.736-29.7,6.558-37.8,9.644-65.186c3.085-27.386,11.378-33.558,25.843-38.957c14.465-5.4,22.757,5.399,25.264,20.057
	c2.314,14.657-4.242,49.371-3.085,66.922c1.35,20.057-2.894,59.785-3.472,82.928c-0.578,23.144-3.086,61.329-1.929,72.322
	c1.157,10.992,6.558-16.394,9.064-38.379c2.314-21.985,3.086-49.95,4.243-73.093s-0.386-84.278,7.907-90.064
	c14.464-10.414,21.021-1.735,30.664,4.243s9.064,33.557,8.485,43.778c-0.578,10.414,0.579,37.8,1.157,58.436
	c0.579,20.636,0.579,51.686,0,86.979c-0.578,35.293,5.979,60.172,4.243,52.265c-1.736-7.907,3.472-41.657,5.4-49.371
	c1.928-7.715-0.771-38.958-1.157-68.851c-0.386-29.314,8.485-40.692,16.778-42.043c8.486-1.157,24.686,0,27,20.058
	c2.314,20.057,5.979,62.485,6.557,72.707c0.579,10.414-0.578,44.743-0.578,56.314s-2.314,31.05,0.578,58.436
	c3.086,27.386,0.579,67.5-6.557,104.143s-24.493,74.25-37.801,110.7c-13.307,36.45-7.135,71.164-2.313,88.907
	c4.821,17.356,12.149,33.75,31.243,84.664h-193.822c-0.386-6.75-0.771-13.5-2.121-18.9c-4.821-19.479-27-103.563-37.8-124.778
	c-10.8-21.214-42.043-36.45-49.372-47.442c-7.328-10.993-30.664-48.021-41.464-63.258c-10.8-15.235-16.2-26.807-21.021-43.199
	c-4.821-16.394-12.536-33.558-22.757-51.107c-10.222-17.743-7.136-37.222-10.8-53.614c-3.665-16.393-14.465-37.8-17.937-51.107
	C1384.105,613.286,1389.119,598.436,1406.669,599.015z"/>
<path d="M1332.423,626.593c-3.472,13.308-14.271,34.715-17.937,51.107c-3.664,16.393-0.578,35.871-10.8,53.614
	c-10.221,17.55-17.936,34.714-22.757,51.107c-4.821,16.393-10.222,27.964-21.021,43.199c-10.8,15.236-34.136,52.265-41.464,63.258
	c-7.329,10.992-38.572,26.229-49.372,47.442c-10.8,21.215-32.979,105.3-37.8,124.778c-1.35,5.4-1.735,12.15-2.121,18.9H935.329
	c19.094-50.914,26.422-67.308,31.243-84.664c4.821-17.743,10.993-52.457-2.313-88.907c-13.308-36.45-30.665-74.058-37.801-110.7
	s-9.643-76.757-6.557-104.143c2.893-27.386,0.578-46.864,0.578-58.436s-1.157-45.9-0.578-56.314
	c0.578-10.222,4.242-52.65,6.557-72.707c2.314-20.058,18.514-21.215,27-20.058c8.293,1.351,17.164,12.729,16.778,42.043
	c-0.386,29.893-3.085,61.136-1.157,68.851c1.929,7.714,7.137,41.464,5.4,49.371c-1.735,7.907,4.821-16.972,4.243-52.265
	c-0.579-35.293-0.579-66.343,0-86.979c0.578-20.636,1.735-48.021,1.157-58.436c-0.579-10.222-1.157-37.8,8.485-43.778
	s16.2-14.657,30.664-4.243c8.293,5.786,6.75,66.922,7.907,90.064s1.929,51.107,4.243,73.093c2.507,21.985,7.907,49.371,9.064,38.379
	c1.157-10.993-1.351-49.179-1.929-72.322c-0.578-23.143-4.821-62.871-3.472-82.928c1.157-17.551-5.399-52.265-3.085-66.922
	c2.507-14.657,10.799-25.457,25.264-20.057c14.465,5.399,22.758,11.571,25.843,38.957c3.086,27.386,7.907,35.485,9.644,65.186
	c1.735,29.7,3.085,47.442,5.399,66.921s6.558,60.364,10.8,57.279c4.243-2.894,3.664-54.771,4.243-63.836
	c0.578-9.064-2.507-30.472,1.157-43.2s3.086-54.771,5.399-67.5c2.507-12.729,8.486-23.143,19.286-23.722
	c10.8-0.771,23.528,9.644,24.107,24.879c0.578,15.235,9.643,70.007,8.485,87.75c-1.157,17.55,3.664,55.929,3.086,75.407
	c-0.579,19.479,7.328,70.586,9.063,91.222c1.736,20.636,11.958,55.928,21.601,54.771c9.643-1.157,23.528-4.822,28.929-23.722
	c5.4-18.9,13.114-48.793,26.421-64.607c13.114-15.814,35.486-34.136,52.844-34.714
	C1330.88,598.436,1335.894,613.286,1332.423,626.593z"/>
</svg>
